<svg width="512" height="512" viewBox="0 0 512 512" fill="none" xmlns="http://www.w3.org/2000/svg">
<path d="M238.837 512L53.3542 409.325C44.3365 404.346 37.0869 397.306 32.136 388.893C27.0082 380.48 24.356 370.865 24.1791 360.907L24.0023 168.263C23.8255 148.174 33.7274 127.742 51.586 117.612L257.58 0L461.629 117.612C464.988 119.501 468.171 121.905 471 124.48L273.317 231.962C252.098 243.466 238.837 265.272 238.837 288.966V512Z" fill="#084564"/>
<path d="M488.823 361.191C488.823 371.131 485.992 380.899 480.86 389.125C475.728 397.522 468.473 404.549 459.626 409.518L274 512V309.779C274 286.129 287.095 264.536 308.329 252.883L489 154L488.823 361.191Z" fill="url(#paint0_linear)"/>
<defs>
<linearGradient id="paint0_linear" x1="331.717" y1="600.846" x2="646.661" y2="385.332" gradientUnits="userSpaceOnUse">
<stop stop-color="#00BDD4"/>
<stop offset="1" stop-color="#00FFE0"/>
</linearGradient>
</defs>
</svg>
